<svg xmlns="http://www.w3.org/2000/svg" viewBox="0 0 214.52 209.96"><defs><style>.cls-1{fill:#38672d;}</style></defs><g id="Layer_3" data-name="Layer 3"><path class="cls-1" d="M161.36,114.27c-5.32-9.22-16.12-12.22-26.36-13.15-2.67-13.92-6.88-27.43-13.41-34.28-5.19-5.43-11.44-5.34-17.93-1.42-9.64,6-20.14,18.5-29.4,31.76a30.72,30.72,0,0,0,3.07,1,39.68,39.68,0,0,0,3.93.85c4.88-5.58,9.94-10.94,15.23-15.91,3.9-3.47,10.41-9.29,15.09-9.26,3,.56,5.19,5.27,6.65,8.65a109.2,109.2,0,0,1,5.24,18.27,189.68,189.68,0,0,0-20.67,1.9,84.61,84.61,0,0,1-20.91.11c-6.26-.93-12.89-2.9-17.31-7.61-6.93-7.64-3.93-18.82,3.34-25.93C76.18,61,87.05,57.41,97.44,56A70.18,70.18,0,0,1,138,63a4.59,4.59,0,0,0-.05,4.73A3.11,3.11,0,0,0,141,69.17a3.63,3.63,0,0,0,2-.91c7.9,4.75,9.18,14.74,6.13,16.17s-5.66-1.54-6.52-3.13a10.93,10.93,0,0,0,3.29-.42c-2.69-.52-5.46-3.26-6.74-7.1-.84,10.58,4.38,16.76,11.25,13.79,4.42-1.9,4-9.52,2-12.84,2.59,1.42,4.43,1.5,2.9-2.17a13.45,13.45,0,0,0-1.47-2.67c3.27.7,5.57.34,3-2.83a11.72,11.72,0,0,0-2.93-2.61c.92-.21,1.64-.52,1.71-1,.19-1.35-1.87-3.28-5.85-3.24a9,9,0,0,0-5.83,2.28h0l0,0a3.13,3.13,0,0,0-4-1.22,82,82,0,0,0-20.52-7.43,74.35,74.35,0,0,0-44.31,3.6c-5.56,2.39-11.28,5.74-15.7,10.82-9,10-9.61,25.39-.87,34.31a28,28,0,0,0,8.27,5.87c-4.36,6.87-8.23,13.5-11.3,19-.73,1.43.88,2.55,1.75,1.38,4.78-6.19,9.61-12.43,14.55-18.54A49.54,49.54,0,0,0,80.41,112c9.52,1,18.82-.24,28.21-2.07a150.13,150.13,0,0,1,16.09-2.1c10.54-.64,26.6-.72,33.06,9.36a17.59,17.59,0,0,1,2.24,10.3c-.38,5.84-3.51,11-7.55,14.91C141.17,153,125.39,156.86,111.59,158c-17.47,1.07-37.31-2.41-49.2-17a34.46,34.46,0,0,1-5.5-10,.46.46,0,0,0-.66-.27.67.67,0,0,0-.29.78,36.76,36.76,0,0,0,5.64,10.38c18.66,24.16,69.24,24,92.77,3.17A30,30,0,0,0,162,134.34C164.68,127.82,164.53,120,161.36,114.27ZM140.08,63.86a1.27,1.27,0,0,1,2,.22,1.83,1.83,0,0,1-.37,2.27,1.27,1.27,0,0,1-2-.21A1.84,1.84,0,0,1,140.08,63.86Z"/><path class="cls-1" d="M119.33,113.67a7,7,0,1,0,6.92,8l3,25.37a2.06,2.06,0,0,0,2.5,1.95l7.82-1.92a2.78,2.78,0,0,0,1.91-3l-3.89-32.67-.91-.07a88.2,88.2,0,0,0-11.27,0l-.43,0,.8,6.69A7,7,0,0,0,119.33,113.67Z"/><path class="cls-1" d="M37,139.65l-5.61,3,4,7.38-1.31.71-4-7.38-6,3.28-.82-1.51,14.28-7.74,5.3,9.8-1.3.7Z"/><path class="cls-1" d="M46.9,152.69,48,154,37,163.74l6,6.82-1.12,1-7.15-8.11Z"/><path class="cls-1" d="M55.66,175.6l-3.36,4.5-1.36-1,3.36-4.5,1.16-12.4,1.47,1.1-1,10.63,9.92-4,1.37,1Z"/><path class="cls-1" d="M82.9,179.48l-1.74,6.13,8.08,2.29-.4,1.43L80.76,187l-1.88,6.63-1.65-.46,4.42-15.63,10.72,3L92,182Z"/><path class="cls-1" d="M99.41,181.37l1.71.15L99.7,197.7,98,197.55Z"/><path class="cls-1" d="M109.75,196.18l.54-1.38a8,8,0,0,0,5.53,1.46c3-.29,4.22-1.69,4.07-3.28-.42-4.44-10.12-.77-10.68-6.75-.23-2.38,1.42-4.61,5.54-5a9.2,9.2,0,0,1,5.15,1l-.45,1.42a8.43,8.43,0,0,0-4.57-.93c-2.95.28-4.14,1.72-4,3.34.42,4.44,10.12.82,10.68,6.71.22,2.38-1.48,4.59-5.62,5A8.82,8.82,0,0,1,109.75,196.18Z"/><path class="cls-1" d="M139.89,174.72,145.5,190l-1.59.59-2.59-7-9.54,3.5,2.59,7-1.61.59-5.61-15.24,1.61-.59,2.5,6.79,9.54-3.51-2.5-6.79Z"/><path class="cls-1" d="M147.37,170.31l1.45-.92,8.71,13.7-1.45.93Z"/><path class="cls-1" d="M165.65,155,177,166.54l-1,1-16.68-2.06,9.25,9.39-1.22,1.2L156,164.49l1-1,16.7,2-9.25-9.38Z"/><path class="cls-1" d="M183.36,142.38l.81-1.43,5.39,3.05a9,9,0,0,1-1.14,6.21c-2.44,4.3-7.27,5.72-11.41,3.38s-5.4-7.22-3-11.54a8,8,0,0,1,5-4.1l.42,1.47a6.86,6.86,0,1,0,7.63,10,7.05,7.05,0,0,0,1-4.31Z"/><path class="cls-1" d="M29.89,92.43,27.45,90.5a9.57,9.57,0,0,0,2.95-4.79c.55-2.16.05-3.22-.92-3.46-2.95-.74-3.23,8.93-9.08,7.45C17.72,89,16,86.31,17.17,81.83a10.84,10.84,0,0,1,2.77-5.12l2.48,1.82a9.18,9.18,0,0,0-2.33,4.06c-.55,2.16.05,3.2,1,3.44,2.91.73,3.21-8.93,9-7.47,2.63.66,4.34,3.41,3.2,7.91A11.56,11.56,0,0,1,29.89,92.43Z"/><path class="cls-1" d="M21.74,68.77l1.65-3.38,11.83,5.8,3.58-7.31,2.75,1.35L36.31,75.92Z"/><path class="cls-1" d="M49,50.49l2.37,1.87-7.79,9.87L30.83,52.16l7.6-9.63L40.8,44.4l-5.29,6.7,2.77,2.19L43,47.37l2.29,1.81L40.57,55.1l3,2.33Z"/><path class="cls-1" d="M62.44,39l1.9,2.34-9.77,7.93L44.34,36.62l9.53-7.73,1.9,2.34-6.63,5.38,2.23,2.74,5.85-4.75,1.84,2.27-5.85,4.75,2.37,2.92Z"/><path class="cls-1" d="M76.26,23.51c1.58,3.25.12,6.46-3.79,8.35l-3,1.42,2,4L68.09,39,61,24.33l6.33-3.06C71.25,19.38,74.68,20.22,76.26,23.51Zm-3.42,1.65c-.78-1.61-2.28-2-4.35-1l-2.75,1.33,2.45,5.08L71,29.19C73,28.19,73.61,26.75,72.84,25.16Z"/><path class="cls-1" d="M91.06,24.32l1.26,5.62-3.67.82L87.38,25.1,79,16.28l3.9-.87,5.81,6.09,2.66-8,3.6-.8Z"/><path class="cls-1" d="M121,26.11l-7.48-.94-1.86,3.28L107.86,28l9.2-15.22,3.68.46,5.19,17L122,29.74Zm-.82-3-1.78-6.49-3.33,5.85Z"/><path class="cls-1" d="M148.73,21.69l-6,15.08-2.87-1.15L136,23.45,132.3,32.6l-3.45-1.39,6.06-15.07,2.88,1.16,3.82,12.16,3.68-9.15Z"/><path class="cls-1" d="M161,39.18l2.75,2-3.93,5.29a11.19,11.19,0,0,1-6.5-2.25c-4.1-3-5-8.1-2.11-12s8-4.5,12.18-1.41a8.63,8.63,0,0,1,3.79,6.31l-3.27.35a5.47,5.47,0,0,0-2.28-4,5.2,5.2,0,1,0-6.23,8.32A5.86,5.86,0,0,0,158.15,43Z"/><path class="cls-1" d="M174.54,41,177,43.84l-10,8.55,5.28,6.2-2.33,2-7.72-9.06Z"/><path class="cls-1" d="M180.49,73.26l-2.66,1.43-6-11.07,14.3-7.7L192,66.73l-2.65,1.43-4.05-7.52-3.11,1.67L185.76,69l-2.58,1.39-3.57-6.64-3.31,1.78Z"/><path class="cls-1" d="M182.12,88.8l3.56-4.2,0-.17-.85-3.17-4.37,1.17-1-3.63,15.69-4.19L197,81.4c1.12,4.19-.36,7.39-3.88,8.33a5.26,5.26,0,0,1-5.81-1.9l-4.1,4.87ZM193.94,82l-.79-3-5.47,1.46.79,3c.6,2.22,1.93,3.06,3.63,2.61S194.54,84.21,193.94,82Z"/><circle class="cls-1" cx="190.24" cy="115.32" r="3.35"/><circle class="cls-1" cx="24.09" cy="117.32" r="3.35"/><path class="cls-1" d="M107.26,175.59A70.61,70.61,0,1,1,177.87,105,70.69,70.69,0,0,1,107.26,175.59Zm0-139.22A68.61,68.61,0,1,0,175.87,105,68.69,68.69,0,0,0,107.26,36.37Z"/><path class="cls-1" d="M107.26,205.73A100.75,100.75,0,1,1,208,105,100.87,100.87,0,0,1,107.26,205.73Zm0-199.5A98.75,98.75,0,1,0,206,105,98.86,98.86,0,0,0,107.26,6.23Z"/></g></svg>