<svg xmlns="http://www.w3.org/2000/svg" viewBox="0 0 199.66 48.86"><defs><style>.cls-1{fill:#fff;}</style></defs><g id="Layer_3" data-name="Layer 3"><path class="cls-1" d="M54.74,22.39l.89-2a6.73,6.73,0,0,0,3.77,1.19c1.56,0,2.2-.52,2.2-1.22,0-2.13-6.64-.67-6.64-4.9,0-1.94,1.57-3.56,4.81-3.56a7.74,7.74,0,0,1,4,1l-.81,2a6.49,6.49,0,0,0-3.17-.9c-1.56,0-2.16.59-2.16,1.31,0,2.1,6.63.65,6.63,4.84,0,1.9-1.58,3.53-4.84,3.53A8.13,8.13,0,0,1,54.74,22.39Z"/><path class="cls-1" d="M66,12.11h2.64v9.26h5.72v2.15H66Z"/><path class="cls-1" d="M84.7,21.4v2.12H75.87V12.11h8.62v2.12h-6v2.48h5.3v2.05h-5.3V21.4Z"/><path class="cls-1" d="M95.63,21.4v2.12H86.8V12.11h8.62v2.12h-6v2.48h5.3v2.05h-5.3V21.4Z"/><path class="cls-1" d="M107.62,16.25c0,2.54-1.9,4.12-5,4.12h-2.3v3.15H97.73V12.11h4.94C105.72,12.11,107.62,13.69,107.62,16.25Zm-2.67,0c0-1.26-.81-2-2.43-2h-2.15v4h2.15C104.14,18.22,105,17.49,105,16.25Z"/><path class="cls-1" d="M115,19.48v4h-2.64V19.44l-4.41-7.33h2.8l3,5.07,3-5.07h2.6Z"/><path class="cls-1" d="M132.64,21.07h-5.3l-1,2.45h-2.71l5.09-11.41h2.61l5.1,11.41h-2.77Zm-.84-2L130,14.7l-1.81,4.37Z"/><path class="cls-1" d="M148.07,12.11V23.52H145.9l-5.69-6.93v6.93H137.6V12.11h2.19L145.46,19V12.11Z"/><path class="cls-1" d="M158.48,17.63h2.41v4.63a7.84,7.84,0,0,1-4.61,1.45c-3.59,0-6.23-2.46-6.23-5.9s2.64-5.9,6.28-5.9a6.08,6.08,0,0,1,4.77,2l-1.69,1.56a3.87,3.87,0,0,0-2.95-1.29,3.51,3.51,0,0,0-3.73,3.65,3.51,3.51,0,0,0,3.69,3.65,4.2,4.2,0,0,0,2.06-.49Z"/><path class="cls-1" d="M163.33,12.11H166v9.26h5.72v2.15h-8.36Z"/><path class="cls-1" d="M182,21.4v2.12h-8.84V12.11h8.62v2.12h-6v2.48h5.29v2.05H175.8V21.4Z"/><path class="cls-1" d="M191.37,23.52l-2.2-3.18h-2.42v3.18h-2.64V12.11H189c3.05,0,5,1.58,5,4.14a3.72,3.72,0,0,1-2.35,3.6l2.56,3.67Zm-2.47-9.26h-2.15v4h2.15c1.61,0,2.43-.75,2.43-2S190.51,14.26,188.9,14.26Z"/><path class="cls-1" d="M57.61,28.84v3.39h4.45V33H57.61v3.66H56.7V28.06h5.9v.78Z"/><path class="cls-1" d="M66.94,28.06h.91v7.82h4.82v.79H66.94Z"/><path class="cls-1" d="M78.68,33.69v3h-.9v-3l-3.44-5.63h1l3,4.83,2.95-4.83h.91Z"/><path class="cls-1" d="M92.58,28.84v3.39H97V33H92.58v3.66h-.91V28.06h5.9v.78Z"/><path class="cls-1" d="M101.91,28.06h.91v8.61h-.91Z"/><path class="cls-1" d="M107.25,35.62l.36-.7a4.25,4.25,0,0,0,2.84,1c1.61,0,2.31-.68,2.31-1.53,0-2.36-5.3-.91-5.3-4.09,0-1.27,1-2.37,3.18-2.37a4.81,4.81,0,0,1,2.66.77l-.3.72a4.43,4.43,0,0,0-2.36-.71c-1.58,0-2.28.7-2.28,1.56,0,2.36,5.3.94,5.3,4.07,0,1.27-1,2.35-3.21,2.35A4.65,4.65,0,0,1,107.25,35.62Z"/><path class="cls-1" d="M125.29,28.06v8.61h-.9v-4H119v4h-.91V28.06H119V31.9h5.38V28.06Z"/><path class="cls-1" d="M130.55,28.06h.91v8.61h-.91Z"/><path class="cls-1" d="M143.91,28.06v8.61h-.75l-5.53-7v7h-.91V28.06h.75L143,35v-7Z"/><path class="cls-1" d="M155.23,32.36h.88v3.29A4.8,4.8,0,0,1,153,36.74,4.38,4.38,0,1,1,153,28a4.25,4.25,0,0,1,3.2,1.25l-.57.57A3.64,3.64,0,1,0,153,35.93a3.71,3.71,0,0,0,2.25-.67Z"/><path class="cls-1" d="M44.88,27.35C43,24,39.06,22.93,35.36,22.59c-1-5-2.49-9.91-4.85-12.39-1.88-2-4.14-1.93-6.49-.51-3.48,2.15-7.28,6.69-10.62,11.48a10.15,10.15,0,0,0,1.1.35,13.78,13.78,0,0,0,1.43.31c1.76-2,3.59-3.95,5.5-5.75,1.41-1.25,3.77-3.36,5.46-3.35,1.07.2,1.88,1.91,2.4,3.13a39.93,39.93,0,0,1,1.9,6.6,70,70,0,0,0-7.48.69,30.3,30.3,0,0,1-7.55,0c-2.27-.34-4.67-1.05-6.26-2.75-2.51-2.76-1.43-6.81,1.2-9.37A18.19,18.19,0,0,1,21.78,6.28,25.37,25.37,0,0,1,36.44,8.81a1.65,1.65,0,0,0,0,1.7,1.11,1.11,0,0,0,1.12.53,1.22,1.22,0,0,0,.72-.33c2.86,1.72,3.32,5.33,2.22,5.85s-2-.56-2.36-1.13a4.14,4.14,0,0,0,1.19-.15,3.71,3.71,0,0,1-2.44-2.57c-.3,3.83,1.59,6.06,4.07,5,1.6-.69,1.46-3.45.71-4.65.94.52,1.6.55,1.05-.78a5.21,5.21,0,0,0-.53-1c1.18.26,2,.13,1.07-1a4,4,0,0,0-1.06-.94c.33-.08.6-.19.62-.36.07-.49-.68-1.19-2.12-1.17a3.23,3.23,0,0,0-2.1.82h0a1.12,1.12,0,0,0-1.43-.44,29.66,29.66,0,0,0-7.43-2.69,26.85,26.85,0,0,0-16,1.3A15.59,15.59,0,0,0,8,10.7c-3.26,3.63-3.48,9.18-.31,12.41a10,10,0,0,0,3,2.12c-1.58,2.49-3,4.88-4.09,6.89-.26.51.32.92.63.5,1.73-2.24,3.48-4.5,5.26-6.71a18.5,18.5,0,0,0,3.12.61,34.34,34.34,0,0,0,10.2-.75A55,55,0,0,1,31.63,25c3.82-.23,9.62-.26,12,3.38a6.49,6.49,0,0,1,.81,3.73,8.47,8.47,0,0,1-2.73,5.39c-4.08,3.83-9.79,5.24-14.78,5.65-6.31.39-13.48-.87-17.78-6.14a12.35,12.35,0,0,1-2-3.62.17.17,0,0,0-.24-.1.24.24,0,0,0-.11.28,13.44,13.44,0,0,0,2,3.75c6.75,8.74,25,8.69,33.54,1.15a10.82,10.82,0,0,0,2.78-3.87A8.7,8.7,0,0,0,44.88,27.35ZM37.19,9.12a.46.46,0,0,1,.71.08.67.67,0,0,1-.13.83.46.46,0,0,1-.71-.08A.67.67,0,0,1,37.19,9.12Z"/><path class="cls-1" d="M29.69,27.13A2.53,2.53,0,1,0,32.19,30l1.1,9.2a.75.75,0,0,0,.9.71l2.83-.7a1,1,0,0,0,.69-1.09L36.3,26.31l-.33,0a32.48,32.48,0,0,0-4.07,0h-.15L32,28.72A2.55,2.55,0,0,0,29.69,27.13Z"/></g></svg>